<svg id="Logo" xmlns="http://www.w3.org/2000/svg" xmlns:xlink="http://www.w3.org/1999/xlink" width="200" height="80" viewBox="0 0 200 80">
  <defs>
    <clipPath id="clip-path">
      <path id="Clip_10" data-name="Clip 10" d="M0,80H200V0H0Z" fill="none"/>
    </clipPath>
  </defs>
  <path id="Fill_1" data-name="Fill 1" d="M40.38,46.483H17.365A14.965,14.965,0,0,1,4.3,39.357Q0,32.987,0,23.633,0,14.08,4.369,7.4,9.22,0,17.365,0H40.38V9.8H19.1q-3.815,0-6,4.038a18.517,18.517,0,0,0-1.974,8.935,20.017,20.017,0,0,0,2.01,9.343Q15.357,36.4,19.1,36.4H40.38Z" transform="translate(18.151 33.402)"/>
  <path id="Fill_3" data-name="Fill 3" d="M31.508,9.8H20.866V46.483H10.607V9.8H0V0H31.508Z" transform="translate(78.008 33.402)"/>
  <path id="Fill_5" data-name="Fill 5" d="M39.854,29.41a15.3,15.3,0,0,1-6.34,12.855,22.394,22.394,0,0,1-13.9,4.319A21.408,21.408,0,0,1,6.1,42.369,15.5,15.5,0,0,1,0,29.41V0H10.187V27.734a6.837,6.837,0,0,0,3.155,5.893,11.843,11.843,0,0,0,6.967,1.989A11.046,11.046,0,0,0,26.928,33.7a6.989,6.989,0,0,0,3.014-5.963V0h9.912Z" transform="translate(113.876 33.29)"/>
  <path id="Fill_7" data-name="Fill 7" d="M39.444,9.8H14.422a3.234,3.234,0,0,0-2.687,1.261,4.691,4.691,0,0,0-.989,2.97,4.464,4.464,0,0,0,.956,2.872,3.278,3.278,0,0,0,2.72,1.192H29.15a11.349,11.349,0,0,1,9.429,4.42,15.333,15.333,0,0,1,3.15,9.771,15.317,15.317,0,0,1-3.12,9.771,11.373,11.373,0,0,1-9.46,4.423H2.323V36.611H27.45a3.1,3.1,0,0,0,2.6-1.373,4.933,4.933,0,0,0,.9-2.985,4.73,4.73,0,0,0-.9-2.894,3.034,3.034,0,0,0-2.6-1.216H12.687a11.511,11.511,0,0,1-9.5-4.384A14.983,14.983,0,0,1,0,14.072,14.968,14.968,0,0,1,3.154,4.416,11.578,11.578,0,0,1,12.687,0H39.444Z" transform="translate(158.27 33.402)"/>
  <path id="Clip_10-2" data-name="Clip 10" d="M0,80H200V0H0Z" fill="none"/>
  <g id="Logo-2" data-name="Logo" clip-path="url(#clip-path)">
    <path id="Fill_9" data-name="Fill 9" d="M0,46.476H10.677V0H0Z" transform="translate(63.024 33.402)"/>
    <path id="Fill_11" data-name="Fill 11" d="M77.53,26.693,40.088,0,0,26.678V80H10.677V32.289L39.93,12.843l19.4,13.889Z" transform="translate(0)"/>
    <path id="Fill_12" data-name="Fill 12" d="M40.088,0,0,26.679l10.677,5.609L39.931,12.844Z" transform="translate(0 0)"/>
  </g>
</svg>
